<?xml version="1.0" encoding="UTF-8"?>
<!DOCTYPE svg PUBLIC "-//W3C//DTD SVG 1.1//EN" "http://www.w3.org/Graphics/SVG/1.1/DTD/svg11.dtd">
<svg xmlns="http://www.w3.org/2000/svg" version="1.1" width="512px" height="512px" style="shape-rendering:geometricPrecision; text-rendering:geometricPrecision; image-rendering:optimizeQuality; fill-rule:evenodd; clip-rule:evenodd" xmlns:xlink="http://www.w3.org/1999/xlink">
<g><path style="opacity:0.992" fill="#393838" d="M 185.5,13.5 C 191.181,13.5851 195.015,16.2518 197,21.5C 197.5,41.8306 197.667,62.1639 197.5,82.5C 206.506,82.3336 215.506,82.5002 224.5,83C 230.667,85.1667 234.833,89.3333 237,95.5C 237.667,168.833 237.667,242.167 237,315.5C 234.833,321.667 230.667,325.833 224.5,328C 215.506,328.5 206.506,328.666 197.5,328.5C 197.667,350.169 197.5,371.836 197,393.5C 194.107,401.029 188.94,403.195 181.5,400C 179.19,398.363 177.69,396.196 177,393.5C 176.5,371.836 176.333,350.169 176.5,328.5C 167.494,328.666 158.494,328.5 149.5,328C 143.753,325.921 139.586,322.088 137,316.5C 136.333,242.833 136.333,169.167 137,95.5C 139.167,89.3333 143.333,85.1667 149.5,83C 158.494,82.5002 167.494,82.3336 176.5,82.5C 176.333,62.1639 176.5,41.8306 177,21.5C 178.419,17.2452 181.253,14.5785 185.5,13.5 Z"/></g>
<g><path style="opacity:0.99" fill="#383938" d="M -0.5,336.5 C -0.5,268.5 -0.5,200.5 -0.5,132.5C 2.39702,127.106 6.73035,123.273 12.5,121C 21.4938,120.5 30.4938,120.334 39.5,120.5C 39.3334,95.1645 39.5,69.8311 40,44.5C 43.6441,37.2554 49.1441,35.5888 56.5,39.5C 58.2974,41.1311 59.4641,43.1311 60,45.5C 60.5,70.4978 60.6666,95.4978 60.5,120.5C 69.5062,120.334 78.5062,120.5 87.5,121C 92.5252,122.689 96.3585,125.856 99,130.5C 100.157,165.108 100.657,199.775 100.5,234.5C 100.657,269.225 100.157,303.892 99,338.5C 96.448,342.719 92.948,345.886 88.5,348C 79.1726,348.5 69.8393,348.666 60.5,348.5C 60.6666,372.836 60.5,397.169 60,421.5C 56.2392,429.787 50.4059,431.621 42.5,427C 41.5399,425.581 40.7065,424.081 40,422.5C 39.5,397.836 39.3334,373.169 39.5,348.5C 30.1607,348.666 20.8274,348.5 11.5,348C 5.67528,346.007 1.67528,342.174 -0.5,336.5 Z"/></g>
<g><path style="opacity:1" fill="#fa3f48" d="M 151.5,96.5 C 174.836,96.3334 198.169,96.5 221.5,97C 222.667,97.5 223.5,98.3333 224,99.5C 224.667,170.167 224.667,240.833 224,311.5C 223.626,312.416 223.126,313.25 222.5,314C 198.833,314.667 175.167,314.667 151.5,314C 151,313.5 150.5,313 150,312.5C 149.333,241.167 149.333,169.833 150,98.5C 150.717,97.9558 151.217,97.2891 151.5,96.5 Z"/></g>
<g><path style="opacity:0.991" fill="#393838" d="M 511.5,193.5 C 511.5,248.167 511.5,302.833 511.5,357.5C 509.981,360.021 508.314,362.521 506.5,365C 504.33,366.586 501.996,367.92 499.5,369C 489.839,369.5 480.172,369.666 470.5,369.5C 470.667,395.835 470.5,422.169 470,448.5C 465.88,453.71 460.714,454.877 454.5,452C 452.951,450.786 451.785,449.286 451,447.5C 450.5,421.502 450.333,395.502 450.5,369.5C 441.494,369.666 432.494,369.5 423.5,369C 418.475,367.311 414.641,364.144 412,359.5C 410.845,331.56 410.345,303.56 410.5,275.5C 410.345,247.44 410.845,219.44 412,191.5C 414.106,186.853 417.606,183.686 422.5,182C 431.827,181.5 441.161,181.334 450.5,181.5C 450.333,157.831 450.5,134.164 451,110.5C 454.322,103.765 459.489,101.931 466.5,105C 468.049,106.214 469.215,107.714 470,109.5C 470.5,133.498 470.667,157.498 470.5,181.5C 480.172,181.334 489.839,181.5 499.5,182C 505.35,184.019 509.35,187.852 511.5,193.5 Z"/></g>
<g><path style="opacity:1" fill="#49e250" d="M 14.5,134.5 C 37.8357,134.333 61.169,134.5 84.5,135C 85.6667,135.5 86.5,136.333 87,137.5C 87.6667,202.5 87.6667,267.5 87,332.5C 86.5,333 86,333.5 85.5,334C 61.8333,334.667 38.1667,334.667 14.5,334C 14,333.5 13.5,333 13,332.5C 12.3333,267.167 12.3333,201.833 13,136.5C 13.7172,135.956 14.2172,135.289 14.5,134.5 Z"/></g>
<g><path style="opacity:0.994" fill="#383938" d="M 320.5,162.5 C 326.59,161.137 331.09,163.137 334,168.5C 334.5,185.497 334.667,202.497 334.5,219.5C 343.839,219.334 353.173,219.5 362.5,220C 368.307,221.807 372.141,225.64 374,231.5C 374.167,263.5 374.333,295.5 374.5,327.5C 374.656,360.559 374.156,393.559 373,426.5C 370.28,431.551 366.113,434.718 360.5,436C 351.84,436.5 343.173,436.666 334.5,436.5C 334.667,454.503 334.5,472.503 334,490.5C 328.096,499.289 321.763,499.622 315,491.5C 314.5,473.17 314.333,454.836 314.5,436.5C 305.494,436.666 296.494,436.5 287.5,436C 281.887,434.718 277.72,431.551 275,426.5C 273.844,393.559 273.344,360.559 273.5,327.5C 273.667,295.5 273.833,263.5 274,231.5C 275.833,225.667 279.667,221.833 285.5,220C 295.161,219.5 304.828,219.334 314.5,219.5C 314.333,202.497 314.5,185.497 315,168.5C 316.36,165.977 318.193,163.977 320.5,162.5 Z"/></g>
<g><path style="opacity:1" fill="#fa3f48" d="M 425.5,195.5 C 449.169,195.333 472.836,195.5 496.5,196C 497,196.5 497.5,197 498,197.5C 498.667,249.5 498.667,301.5 498,353.5C 497.5,354 497,354.5 496.5,355C 472.833,355.667 449.167,355.667 425.5,355C 424.874,354.25 424.374,353.416 424,352.5C 423.333,300.833 423.333,249.167 424,197.5C 424.717,196.956 425.217,196.289 425.5,195.5 Z"/></g>
<g><path style="opacity:1" fill="#49e250" d="M 288.5,233.5 C 312.169,233.333 335.836,233.5 359.5,234C 360,234.5 360.5,235 361,235.5C 361.667,296.833 361.667,358.167 361,419.5C 360.5,420.667 359.667,421.5 358.5,422C 335.5,422.667 312.5,422.667 289.5,422C 288.333,421.5 287.5,420.667 287,419.5C 286.333,358.167 286.333,296.833 287,235.5C 287.717,234.956 288.217,234.289 288.5,233.5 Z"/></g>
</svg>
